<svg xmlns="http://www.w3.org/2000/svg" viewBox="0 0 826.03 415.46"><defs><style>.cls-1{fill:#a3a5a8;}.cls-2,.cls-4,.cls-6{fill:#231f20;}.cls-3{opacity:0.8;}.cls-12,.cls-4,.cls-5{opacity:0.6;}.cls-6{opacity:0.7;}.cls-7{fill:#b72418;}.cls-10,.cls-13,.cls-19,.cls-39,.cls-46,.cls-8{fill:#fff;}.cls-8{stroke:#231f20;}.cls-10,.cls-8{stroke-miterlimit:10;stroke-width:0.5px;}.cls-9{font-size:8.92px;}.cls-11,.cls-9{font-family:Barlow-SemiBold, Barlow;font-weight:600;}.cls-10{stroke:#000;}.cls-11{font-size:9.43px;}.cls-13,.cls-19{font-size:14px;}.cls-13{font-family:Barlow-Black, Barlow;font-weight:800;}.cls-14{letter-spacing:-0.01em;}.cls-15{letter-spacing:-0.05em;}.cls-16{letter-spacing:-0.01em;}.cls-17{letter-spacing:0em;}.cls-18{letter-spacing:0em;}.cls-19,.cls-39,.cls-46{font-family:Barlow-Medium, Barlow;font-weight:500;}.cls-20{letter-spacing:0.02em;}.cls-21{letter-spacing:-0.02em;}.cls-22{letter-spacing:0em;}.cls-23{letter-spacing:0.01em;}.cls-24{letter-spacing:0em;}.cls-25{letter-spacing:-0.01em;}.cls-26{letter-spacing:-0.02em;}.cls-27{letter-spacing:0em;}.cls-28{letter-spacing:-0.01em;}.cls-29{letter-spacing:-0.01em;}.cls-30{letter-spacing:-0.01em;}.cls-31{letter-spacing:0em;}.cls-32{letter-spacing:-0.01em;}.cls-33{letter-spacing:-0.01em;}.cls-34{letter-spacing:0em;}.cls-35{letter-spacing:0em;}.cls-36{letter-spacing:0.02em;}.cls-37{letter-spacing:0em;}.cls-38{letter-spacing:-0.05em;}.cls-39{font-size:11.01px;}.cls-40{letter-spacing:0.02em;}.cls-41{letter-spacing:-0.02em;}.cls-42{letter-spacing:0em;}.cls-43{letter-spacing:0em;}.cls-44{letter-spacing:0em;}.cls-45{letter-spacing:0em;}.cls-46{font-size:9.44px;}</style></defs><title>map</title><g id="Shapes"><rect class="cls-1" width="826.03" height="415.46"/><path d="M843,125.29v23.29c-53,8.7-125.73,26.93-204.52,49.22-26.44,11.5-55.94,26.16-71.36,40-13,11.64-26.85,25.59-40.24,39.09-19.38,19.53-36.29,36.58-46.75,42.62-.95-2.91-1.91-5.83-2.87-8.78,9.53-6.22,25.95-22.77,43.23-40.18,13.49-13.59,27.43-27.64,40.63-39.46,7-6.3,16.65-12.68,27.47-18.86-43.26,12.72-87.45,26.28-130.45,39.83l-7.63,2.41c-37.37,11.82-73.74,23.59-107.73,34.75C275.36,311.33,211.61,333,158.19,351.36l-12.42,4.29c-63.1,21.81-110,38.51-128.8,45.21V376.44c21.89-7.8,63.93-22.7,118.25-41.48l12.38-4.27c54.14-18.68,119.16-40.75,188-63.36q56.47-18.55,107.8-34.8l7.63-2.41q77.79-24.56,143.38-43.69l-.2,0a146.72,146.72,0,0,1-23.49,1.95h-2c-55.83-.85-115-13-136.91-18q-1.62-5.07-3.19-10c15.27,3.61,79.82,18,140.23,18.93a137.25,137.25,0,0,0,23.92-1.82c39.38-6.45,61.36-9.74,73.13-11.39C740.11,145.88,799.29,132.21,843,125.29Z" transform="translate(-16.97 -15.45)"/><path d="M420.39,162.4c-.15.21-.3.41-.46.61Z" transform="translate(-16.97 -15.45)"/><path d="M399.93,162.39l0,0h0Z" transform="translate(-16.97 -15.45)"/><path class="cls-2" d="M679.07,173.54c-.05,0-1.9.2-7,.88,2.51-.95,4.81-1.81,6.84-2.56Z" transform="translate(-16.97 -15.45)"/><path class="cls-2" d="M679.07,173.54c-.05,0-1.9.2-7,.88,2.51-.95,4.81-1.81,6.84-2.56Z" transform="translate(-16.97 -15.45)"/><g class="cls-3"><path d="M843,101.16v8.18c-40.25,8.73-160.66,35-222.93,49.88a149.19,149.19,0,0,1-34.67,4.53c-38.51,0-56.17-20.17-71-37.07a156.32,156.32,0,0,0-12.82-13.55c-17.56-16.22-38.15-21.41-61.27-15.47a93.94,93.94,0,0,0-27.66,12.39c4.44,14.29,9.87,31.47,15.92,50.42q1.56,4.91,3.19,10c6,18.76,12.53,39,19.23,59.67l-7.63,2.41c-15.35-47.39-29.74-92.29-39.21-122.89C391.3,68,385.64,37.19,387.35,18.09c.08-.92.18-1.8.29-2.64h8.06c-1.81,11.06-1,35.17,14.55,86.64a101.59,101.59,0,0,1,28.11-12.17c17.82-4.58,44.19-5.3,68.63,17.29a160.27,160.27,0,0,1,13.47,14.2c18.13,20.71,38.67,44.17,97.75,30C681.45,136.31,804.53,109.49,843,101.16Z" transform="translate(-16.97 -15.45)"/><path d="M516.71,430.91h-8.42c-11.92-36.16-35.22-107-57.78-176.47l7.63-2.41c6.41,19.71,12.87,39.55,19.12,58.67,1,2.95,1.92,5.87,2.87,8.78C495.25,365.72,508.81,406.92,516.71,430.91Z" transform="translate(-16.97 -15.45)"/><path d="M458.14,252l-7.63,2.41c-2.38-7.33-4.76-14.65-7.11-21.91l7.63-2.41Q454.56,241,458.14,252Z" transform="translate(-16.97 -15.45)"/></g><g class="cls-3"><path d="M843,316.8l-74.23,26c5.41,25.57,13.11,60.68,19.18,88.14h-9.22c-6.31-28.61-14.26-64.88-19.58-90.15-10-47.31-27.16-96.92-27.33-97.41l8.5-3c.16.48,16.37,47.22,26.56,93.52L843,307.27Z" transform="translate(-16.97 -15.45)"/></g><g class="cls-3"><path d="M207,430.91H191.28c-.71-1.05-1.43-2.11-2.14-3.18-13.56-20.28-29-45.12-43.37-72.08q-5.42-10.17-10.55-20.69c-4-8.28-7.89-16.68-11.5-25.16-6.54,3.36-18.16,9-36.85,17.05-25.5,11-57.38,16.75-69.9,18.73v-5.07c12.79-2,43.42-7.7,67.92-18.25,18.83-8.1,30.49-13.79,36.89-17.09-3.58-8.65-6.89-17.36-9.85-26.06-2,.17-4.38.31-6.83.31-6.69,0-14.11-1-17.51-4.93l-.18-.24C70.77,249.65,31.59,246.13,17,245.7v-5a150.24,150.24,0,0,1,25.79,2.91c22.64,4.6,39.47,14.18,48.69,27.72,2.79,3,11.36,3.45,18.87,2.91-2-6.05-3.75-12.1-5.32-18.11-9.08-34.76-16.93-93.05-2.77-173.32a551.26,551.26,0,0,1,16.22-67.34h13.66A536.41,536.41,0,0,0,115,85.32c-7.55,43-13.23,106.89,2.6,167.5,4.9,18.76,13.82,44.76,30,77.87q4.85,9.92,10.59,20.67c11.05,20.66,24.73,43.67,41.66,69Q203.46,425.76,207,430.91Z" transform="translate(-16.97 -15.45)"/></g><path class="cls-4" d="M310.08,430.91H264l-9.22-16.59L252.94,411l-17-30.6-78.3-104.54c-11.64-19.44-8.7-142-8.7-142L175,48.85l13.53-33.4h41.57s-10.63,60.47-43.5,103c-8.7,13.54-30.93,53.43-6.77,146.11,15.47,37.57,68.64,93.61,68.64,93.61l23.2,37.73Z" transform="translate(-16.97 -15.45)"/><polygon class="cls-2" points="396.64 415.46 394.56 415.46 301.15 0 303.22 0 396.64 415.46"/><g class="cls-5"><path class="cls-2" d="M543.76,430.91h-2.09l-3.91-13-27.1-23.82L455,390c-1.24-.1-30-2.77-33.35-20.86-23.58-128-43.25-156.71-44.93-159L337.31,190l-.13-.4L281.23,15.45h2.1L339,188.59l39.07,20,.13.15c.84,1,20.78,26,45.47,160,3,16.6,31.27,19.21,31.55,19.23l56.3,4.2,28,24.64.09.27Z" transform="translate(-16.97 -15.45)"/></g><polygon class="cls-6" points="709.71 415.46 679.99 299.86 480.73 357.66 499.74 415.46 709.71 415.46"/><path class="cls-7" d="M422.65,155.24a12.42,12.42,0,0,1-2.24,7.13l0,0-.46.61,0,.05A58.43,58.43,0,0,0,410.64,183a.57.57,0,0,1-1.1,0,71.3,71.3,0,0,0-9.38-20.33l-.23-.32v0h0a12.49,12.49,0,1,1,22.74-7.13Z" transform="translate(-16.97 -15.45)"/><circle cx="393.13" cy="139.72" r="4.29"/><path class="cls-8" d="M736.06,163.46a5.18,5.18,0,0,1,3.32-.93c2.87,0,7.68-2.67,5.55-7.69-.94-2-1.11-3.33.53-4.45a30.36,30.36,0,0,0-3-3.18s-2.48,3.91-6.39,0h0c-3.91,3.91-6.39,0-6.39,0a30.36,30.36,0,0,0-3,3.18c1.64,1.12,1.47,2.46.53,4.45-2.13,5,2.68,7.69,5.55,7.69s3.3.93,3.3.93h0" transform="translate(-16.97 -15.45)"/><text class="cls-9" transform="translate(714.32 143.7)">30</text><path class="cls-8" d="M290.61,315.31a5.18,5.18,0,0,1,3.32-.93c2.87,0,7.68-2.67,5.55-7.69-.94-2-1.11-3.33.53-4.45a30.36,30.36,0,0,0-3-3.18s-2.48,3.91-6.39,0h0c-3.91,3.91-6.39,0-6.39,0a30.36,30.36,0,0,0-3,3.18c1.64,1.12,1.47,2.46.53,4.45-2.13,5,2.68,7.69,5.55,7.69s3.3.93,3.3.93h0" transform="translate(-16.97 -15.45)"/><text class="cls-9" transform="translate(268.88 295.56)">30</text><rect class="cls-10" x="91.78" y="253.82" width="20.67" height="13.25" rx="6.32"/><text class="cls-11" transform="translate(94.32 263.81)">282</text><g class="cls-5"><path class="cls-2" d="M254.76,414.32l-50.63-27.87-48.35-4.06-11,28.17-.23.17c-.13.1-11.87,8.75-18.48,20.18h-2.3c6.25-11.51,17.51-20.24,19.36-21.62l11.36-29,50.27,4.22L252.94,411Z" transform="translate(-16.97 -15.45)"/></g><path class="cls-12" d="M524,113.48a8.35,8.35,0,0,0,.82.65C524.43,113.84,524.14,113.61,524,113.48Z" transform="translate(-16.97 -15.45)"/><path class="cls-12" d="M529.78,96.8a9.58,9.58,0,0,0-9.17,9.62,9.39,9.39,0,0,0,3.15,6.9l.06.05a.92.92,0,0,1,.14.11c.18.13.47.36.82.65,1.63,1.36,4.71,4.21,5.31,6.82a.23.23,0,0,0,.44,0,16,16,0,0,1,1.24-2.87,12.43,12.43,0,0,1,3.73-4c.31-.22.6-.46.89-.71v0a9.47,9.47,0,0,0-6.62-16.52Zm.33,12.75a3.6,3.6,0,1,1,3.6-3.6A3.6,3.6,0,0,1,530.11,109.55Z" transform="translate(-16.97 -15.45)"/><path class="cls-12" d="M444.43,311a9.58,9.58,0,0,0-9.18,9.61,9.46,9.46,0,0,0,3.15,6.9l.06.05a.92.92,0,0,1,.14.11c.18.13.47.36.82.65,1.63,1.36,4.71,4.21,5.31,6.82a.23.23,0,0,0,.44,0,16.26,16.26,0,0,1,1.24-2.86,12.46,12.46,0,0,1,3.73-4.05,8.65,8.65,0,0,0,.89-.71v0A9.46,9.46,0,0,0,444.43,311Zm.32,12.74a3.6,3.6,0,1,1,3.6-3.6A3.6,3.6,0,0,1,444.75,323.75Z" transform="translate(-16.97 -15.45)"/><path class="cls-12" d="M539.25,308a9.57,9.57,0,0,0-9.17,9.61,9.41,9.41,0,0,0,3.15,6.91l.06.05a.92.92,0,0,1,.14.11c.18.13.47.36.82.65,1.63,1.36,4.71,4.21,5.31,6.82a.23.23,0,0,0,.44,0,15.37,15.37,0,0,1,1.24-2.87,12.46,12.46,0,0,1,3.73-4.05c.31-.22.6-.45.89-.7v0A9.47,9.47,0,0,0,539.25,308Zm.33,12.75a3.6,3.6,0,1,1,3.6-3.6A3.6,3.6,0,0,1,539.58,320.75Z" transform="translate(-16.97 -15.45)"/><path class="cls-12" d="M782.36,72.45a9.57,9.57,0,0,0-9.17,9.61,9.39,9.39,0,0,0,3.15,6.9l.06.05a.92.92,0,0,1,.14.11c.18.13.47.36.82.65,1.63,1.36,4.71,4.21,5.31,6.82a.23.23,0,0,0,.44,0,15.55,15.55,0,0,1,1.24-2.86,12.43,12.43,0,0,1,3.72-4c.31-.22.61-.46.9-.71v0a9.46,9.46,0,0,0-6.62-16.51Zm.33,12.74a3.6,3.6,0,1,1,3.6-3.6A3.6,3.6,0,0,1,782.69,85.19Z" transform="translate(-16.97 -15.45)"/><path d="M536.42,113.32l0,0v0Z" transform="translate(-16.97 -15.45)"/></g><g id="text"><text class="cls-13" transform="translate(412.22 142.34)">I<tspan class="cls-14" x="3.72" y="0">c</tspan><tspan x="11.28" y="0">onic </tspan><tspan class="cls-15" x="40.87" y="0">T</tspan><tspan class="cls-16" x="48.5" y="0">a</tspan><tspan x="55.85" y="0">t</tspan><tspan class="cls-17" x="61.32" y="0">t</tspan><tspan x="66.77" y="0">oo </tspan><tspan class="cls-18" x="85.19" y="0">C</tspan><tspan x="93.69" y="0">o®</tspan></text><text class="cls-19" transform="translate(490.09 59.34)">No<tspan class="cls-20" x="17.19" y="0">r</tspan><tspan class="cls-21" x="22.69" y="0">w</tspan><tspan class="cls-22" x="32.79" y="0">ood House </tspan><tspan x="0" y="16.8">Apa</tspan><tspan class="cls-23" x="23.87" y="16.8">r</tspan><tspan class="cls-24" x="29.22" y="16.8">t</tspan><tspan class="cls-25" x="34.38" y="16.8">m</tspan><tspan x="45.86" y="16.8">ents</tspan></text><text class="cls-19" transform="translate(309.44 336.9)"><tspan class="cls-26">K</tspan><tspan x="8.32" y="0">een </tspan><tspan class="cls-27" x="33.71" y="0">C</tspan><tspan x="42.2" y="0">omp</tspan><tspan class="cls-28" x="69.34" y="0">re</tspan><tspan class="cls-29" x="81.82" y="0">s</tspan><tspan class="cls-24" x="88.47" y="0">sed </tspan><tspan class="cls-30" x="113.33" y="0">G</tspan><tspan x="121.83" y="0">as</tspan></text><text class="cls-19" transform="translate(535.36 304.71)"><tspan class="cls-31">R</tspan><tspan x="8.53" y="0">o</tspan><tspan class="cls-30" x="16.3" y="0">b</tspan><tspan x="23.95" y="0">e</tspan><tspan class="cls-23" x="31.46" y="0">r</tspan><tspan class="cls-24" x="36.81" y="0">ts Au</tspan><tspan class="cls-29" x="67.94" y="0">t</tspan><tspan class="cls-22" x="72.94" y="0">o Mall</tspan></text><text class="cls-19" transform="translate(635.63 66.15)">B<tspan class="cls-32" x="8.74" y="0">e</tspan><tspan x="16.13" y="0">t</tspan><tspan class="cls-33" x="21.29" y="0">t</tspan><tspan x="26.29" y="0">er C</tspan><tspan class="cls-30" x="50.29" y="0">h</tspan><tspan x="57.79" y="0">oi</tspan><tspan class="cls-31" x="69.13" y="0">c</tspan><tspan x="76.44" y="0">e Li</tspan><tspan class="cls-30" x="98.29" y="0">m</tspan><tspan class="cls-34" x="109.77" y="0">o</tspan><tspan x="19.57" y="16.8">a</tspan><tspan class="cls-30" x="26.81" y="16.8">n</tspan><tspan class="cls-35" x="34.31" y="16.8">d </tspan><tspan class="cls-30" x="44.85" y="16.8">C</tspan><tspan x="53.27" y="16.8">ab Se</tspan><tspan class="cls-36" x="86.78" y="16.8">r</tspan><tspan class="cls-34" x="92.29" y="16.8">vi</tspan><tspan class="cls-37" x="102.73" y="16.8">c</tspan><tspan x="110.04" y="16.8">e</tspan></text><text class="cls-19" transform="matrix(0.23, 0.97, -0.97, 0.23, 309.44, 27.72)">Struble <tspan class="cls-38" x="47.46" y="0">T</tspan><tspan class="cls-31" x="54.74" y="0">r</tspan><tspan x="59.88" y="0">ail</tspan></text><text class="cls-39" transform="translate(609.94 142.34) rotate(-13.6)">No<tspan class="cls-40" x="13.52" y="0">r</tspan><tspan class="cls-41" x="17.85" y="0">w</tspan><tspan class="cls-42" x="25.79" y="0">ood House </tspan><tspan class="cls-43" x="78.9" y="0">R</tspan><tspan x="85.61" y="0">d</tspan></text><text class="cls-39" transform="translate(424.2 202.92) rotate(75.19)">No<tspan class="cls-40" x="13.52" y="0">r</tspan><tspan class="cls-41" x="17.85" y="0">w</tspan><tspan class="cls-42" x="25.79" y="0">ood </tspan><tspan class="cls-44" x="46.3" y="0">R</tspan><tspan class="cls-42" x="53" y="0">d</tspan></text><text class="cls-19" transform="matrix(0.24, -0.97, 0.97, 0.24, 96.17, 69.16)">C<tspan class="cls-28" x="8.5" y="0">r</tspan><tspan x="13.58" y="0">eek </tspan><tspan class="cls-45" x="38.56" y="0">R</tspan><tspan x="47.08" y="0">d</tspan></text><text class="cls-46" transform="translate(29.52 319.88) rotate(-19.81)">Glenn Ridge Dr</text></g></svg>